<svg xmlns="http://www.w3.org/2000/svg" data-name="Warstwa 1" viewBox="0 0 24 30" x="0px" y="0px"><title> _Counter</title><path d="M22.78,14.08,20,12.23V7.5a.5.5,0,0,0-.5-.5H17V5h2.5a.5.5,0,0,0,.5-.5v-3a.5.5,0,0,0-.5-.5h-6a.5.5,0,0,0-.5.5v3a.5.5,0,0,0,.5.5H16V7H4.5a.5.5,0,0,0-.5.5v4.73L1.22,14.08A.51.51,0,0,0,1,14.5v8a.5.5,0,0,0,.5.5h21a.5.5,0,0,0,.5-.5v-8A.51.51,0,0,0,22.78,14.08ZM14,2h5V4H14Zm8,20H2V14.77l2.78-1.85A.51.51,0,0,0,5,12.5V8H19v4.5a.51.51,0,0,0,.22.42L22,14.77Zm-5-3.5a.5.5,0,0,1-.5.5h-9a.5.5,0,0,1,0-1h9A.5.5,0,0,1,17,18.5Z"/><text x="0" y="39" fill="#000000" font-size="5px" font-weight="bold" font-family="'Helvetica Neue', Helvetica, Arial-Unicode, Arial, Sans-serif">Created by Martin</text><text x="0" y="44" fill="#000000" font-size="5px" font-weight="bold" font-family="'Helvetica Neue', Helvetica, Arial-Unicode, Arial, Sans-serif">from the Noun Project</text></svg>